<svg xmlns="http://www.w3.org/2000/svg" viewBox="0 0 256 256" role="img" aria-label="Black metal four blade spinner">
  <defs>
    <linearGradient id="blade" x1="0" y1="0" x2="1" y2="1">
      <stop offset="0" stop-color="#778188"/>
      <stop offset="0.18" stop-color="#252a2e"/>
      <stop offset="0.58" stop-color="#050607"/>
      <stop offset="1" stop-color="#343b40"/>
    </linearGradient>
    <radialGradient id="hub" cx="38%" cy="32%" r="72%">
      <stop offset="0" stop-color="#aab2b7"/>
      <stop offset="0.3" stop-color="#454c51"/>
      <stop offset="0.68" stop-color="#0b0d0e"/>
      <stop offset="1" stop-color="#000000"/>
    </radialGradient>
    <filter id="shadow" x="-18%" y="-18%" width="136%" height="136%">
      <feDropShadow dx="0" dy="5" stdDeviation="4" flood-color="#000000" flood-opacity="0.72"/>
    </filter>
  </defs>
  <g filter="url(#shadow)" stroke="#020303" stroke-width="5" stroke-linejoin="round">
    <path fill="url(#blade)" d="M124 130C143 104 154 77 151 43C172 61 196 56 228 25C219 73 193 110 151 134C140 136 131 134 124 130Z"/>
    <path fill="url(#blade)" d="M124 130C143 104 154 77 151 43C172 61 196 56 228 25C219 73 193 110 151 134C140 136 131 134 124 130Z" transform="rotate(90 128 128)"/>
    <path fill="url(#blade)" d="M124 130C143 104 154 77 151 43C172 61 196 56 228 25C219 73 193 110 151 134C140 136 131 134 124 130Z" transform="rotate(180 128 128)"/>
    <path fill="url(#blade)" d="M124 130C143 104 154 77 151 43C172 61 196 56 228 25C219 73 193 110 151 134C140 136 131 134 124 130Z" transform="rotate(270 128 128)"/>
  </g>
  <g fill="none" stroke="#8b949a" stroke-width="4" stroke-linecap="round" opacity="0.62">
    <path d="M145 91C154 72 159 56 157 48"/>
    <path d="M165 145C184 154 200 159 208 157"/>
    <path d="M111 165C102 184 97 200 99 208"/>
    <path d="M91 111C72 102 56 97 48 99"/>
  </g>
  <circle cx="128" cy="128" r="29" fill="url(#hub)" stroke="#020303" stroke-width="7"/>
  <circle cx="128" cy="128" r="12" fill="#111416" stroke="#90999e" stroke-width="4"/>
  <circle cx="122" cy="121" r="4" fill="#dce2e5" opacity="0.58"/>
</svg>
